<svg width="214" height="96" viewBox="0 0 214 96" fill="none" xmlns="http://www.w3.org/2000/svg">
<g filter="url(#filter0_d_2020_4719)">
<path d="M88.8751 0.989788C114.328 0.922462 138.931 10.1655 158.1 26.9843C177.267 43.802 206.128 38.5806 209.513 63.9136C210.186 68.9462 206.651 73.5716 201.618 74.2441C196.585 74.9165 191.96 71.3813 191.288 66.3487C188.489 45.4079 161.785 54.6802 145.972 40.8058C130.161 26.9327 109.885 19.3208 88.9242 19.3761C67.9628 19.4316 47.7285 27.1506 31.9929 41.1069C16.256 55.0644 22.5251 45.8459 19.8402 66.801C19.195 71.8373 14.5884 75.3969 9.55211 74.7516C4.51605 74.1061 0.956276 69.5006 1.60153 64.4644C4.84957 39.1137 0.715874 44.2695 19.792 27.3503C38.8695 10.43 63.4217 1.05716 88.8751 0.989788Z" fill="white"/>
</g>
<g filter="url(#filter1_d_2020_4719)">
<circle cx="56.1612" cy="76.4516" r="13.5484" fill="white"/>
</g>
<g filter="url(#filter2_d_2020_4719)">
<circle cx="130.678" cy="76.4516" r="13.5484" fill="white"/>
</g>
<defs>
<filter id="filter0_d_2020_4719" x="0.816324" y="0.279733" width="212.328" height="78.0958" filterUnits="userSpaceOnUse" color-interpolation-filters="sRGB">
<feFlood flood-opacity="0" result="BackgroundImageFix"/>
<feColorMatrix in="SourceAlpha" type="matrix" values="0 0 0 0 0 0 0 0 0 0 0 0 0 0 0 0 0 0 127 0" result="hardAlpha"/>
<feOffset dx="1.41935" dy="1.41935"/>
<feGaussianBlur stdDeviation="1.06452"/>
<feComposite in2="hardAlpha" operator="out"/>
<feColorMatrix type="matrix" values="0 0 0 0 0 0 0 0 0 0 0 0 0 0 0 0 0 0 0.16 0"/>
<feBlend mode="normal" in2="BackgroundImageFix" result="effect1_dropShadow_2020_4719"/>
<feBlend mode="normal" in="SourceGraphic" in2="effect1_dropShadow_2020_4719" result="shape"/>
</filter>
<filter id="filter1_d_2020_4719" x="39.7741" y="62.9032" width="32.7742" height="32.7742" filterUnits="userSpaceOnUse" color-interpolation-filters="sRGB">
<feFlood flood-opacity="0" result="BackgroundImageFix"/>
<feColorMatrix in="SourceAlpha" type="matrix" values="0 0 0 0 0 0 0 0 0 0 0 0 0 0 0 0 0 0 127 0" result="hardAlpha"/>
<feOffset dy="2.83871"/>
<feGaussianBlur stdDeviation="1.41935"/>
<feComposite in2="hardAlpha" operator="out"/>
<feColorMatrix type="matrix" values="0 0 0 0 0.845928 0 0 0 0 0.845928 0 0 0 0 0.845928 0 0 0 0.25 0"/>
<feBlend mode="normal" in2="BackgroundImageFix" result="effect1_dropShadow_2020_4719"/>
<feBlend mode="normal" in="SourceGraphic" in2="effect1_dropShadow_2020_4719" result="shape"/>
</filter>
<filter id="filter2_d_2020_4719" x="114.29" y="62.9032" width="32.7742" height="32.7742" filterUnits="userSpaceOnUse" color-interpolation-filters="sRGB">
<feFlood flood-opacity="0" result="BackgroundImageFix"/>
<feColorMatrix in="SourceAlpha" type="matrix" values="0 0 0 0 0 0 0 0 0 0 0 0 0 0 0 0 0 0 127 0" result="hardAlpha"/>
<feOffset dy="2.83871"/>
<feGaussianBlur stdDeviation="1.41935"/>
<feComposite in2="hardAlpha" operator="out"/>
<feColorMatrix type="matrix" values="0 0 0 0 0.845928 0 0 0 0 0.845928 0 0 0 0 0.845928 0 0 0 0.25 0"/>
<feBlend mode="normal" in2="BackgroundImageFix" result="effect1_dropShadow_2020_4719"/>
<feBlend mode="normal" in="SourceGraphic" in2="effect1_dropShadow_2020_4719" result="shape"/>
</filter>
</defs>
</svg>
